<svg width="1280" height="720" viewBox="0 0 1280 720" fill="none" xmlns="http://www.w3.org/2000/svg">
  <defs>
    <radialGradient id="g1" cx="0" cy="0" r="1" gradientUnits="userSpaceOnUse" gradientTransform="translate(884 424) rotate(136.145) scale(452.096 683.63)">
      <stop stop-color="#253F6B"/>
      <stop offset="1" stop-color="#04060C" stop-opacity="0"/>
    </radialGradient>
    <radialGradient id="g2" cx="0" cy="0" r="1" gradientUnits="userSpaceOnUse" gradientTransform="translate(317 544) rotate(-12.654) scale(345.563 116.554)">
      <stop stop-color="#E4F4FF" stop-opacity="0.2"/>
      <stop offset="1" stop-color="#E4F4FF" stop-opacity="0"/>
    </radialGradient>
    <radialGradient id="g3" cx="0" cy="0" r="1" gradientUnits="userSpaceOnUse" gradientTransform="translate(1063 578) rotate(-4.918) scale(312.69 100.581)">
      <stop stop-color="#B4C8FF" stop-opacity="0.14"/>
      <stop offset="1" stop-color="#B4C8FF" stop-opacity="0"/>
    </radialGradient>
  </defs>
  <rect width="1280" height="720" fill="#010207"/>
  <rect width="1280" height="720" fill="url(#g1)"/>
  <ellipse cx="320" cy="548" rx="250" ry="74" fill="url(#g2)"/>
  <ellipse cx="1060" cy="580" rx="250" ry="76" fill="url(#g3)"/>
  <g fill="#F5FAFF">
    <circle cx="46" cy="92" r="2.2"/>
    <circle cx="96" cy="148" r="1.7"/>
    <circle cx="114" cy="318" r="3.8"/>
    <circle cx="165" cy="84" r="1.6"/>
    <circle cx="220" cy="188" r="1.9"/>
    <circle cx="244" cy="402" r="2.1"/>
    <circle cx="284" cy="115" r="2.6"/>
    <circle cx="330" cy="515" r="3.4"/>
    <circle cx="374" cy="240" r="1.8"/>
    <circle cx="418" cy="166" r="2.8"/>
    <circle cx="460" cy="323" r="1.6"/>
    <circle cx="512" cy="196" r="3.2"/>
    <circle cx="568" cy="126" r="2.4"/>
    <circle cx="602" cy="470" r="4.5"/>
    <circle cx="640" cy="262" r="2.4"/>
    <circle cx="686" cy="118" r="1.8"/>
    <circle cx="742" cy="284" r="2.5"/>
    <circle cx="786" cy="401" r="1.7"/>
    <circle cx="846" cy="232" r="2.3"/>
    <circle cx="892" cy="114" r="3.9"/>
    <circle cx="932" cy="370" r="2.1"/>
    <circle cx="978" cy="242" r="2.6"/>
    <circle cx="1020" cy="156" r="1.9"/>
    <circle cx="1074" cy="448" r="4.4"/>
    <circle cx="1136" cy="300" r="2"/>
    <circle cx="1184" cy="178" r="2.7"/>
    <circle cx="1234" cy="516" r="3.2"/>
  </g>
  <g fill="#E3F2FF" opacity="0.78">
    <circle cx="74" cy="210" r="1"/>
    <circle cx="90" cy="214" r="1"/>
    <circle cx="110" cy="220" r="1"/>
    <circle cx="120" cy="226" r="1"/>
    <circle cx="320" cy="126" r="1"/>
    <circle cx="332" cy="138" r="1"/>
    <circle cx="342" cy="148" r="1"/>
    <circle cx="352" cy="160" r="1"/>
    <circle cx="738" cy="88" r="1"/>
    <circle cx="752" cy="98" r="1"/>
    <circle cx="764" cy="108" r="1"/>
    <circle cx="780" cy="114" r="1"/>
    <circle cx="1094" cy="194" r="1"/>
    <circle cx="1104" cy="206" r="1"/>
    <circle cx="1116" cy="216" r="1"/>
    <circle cx="1124" cy="228" r="1"/>
  </g>
</svg>
