<svg width="64" height="64" viewBox="0 0 180 240" fill="none" xmlns="http://www.w3.org/2000/svg">
  <path d="M90 16L122 76L112 200H68L58 76L90 16Z" fill="#F6B348"/>
  <path d="M90 16L122 76H90V16Z" fill="#FFD16B"/>
  <path d="M90 16L58 76H90V16Z" fill="#F39E2E"/>
  <path d="M90 16L114 70L90 90L66 70L90 16Z" fill="#334D73"/>
  <path d="M68 200L46 232C45.0874 233.327 43.545 234.086 41.9352 233.993C40.3254 233.899 38.8798 232.969 38.1277 231.544L24 204L42 170L68 200Z" fill="#445B7A"/>
  <path d="M112 200L134 232C134.913 233.327 136.455 234.086 138.065 233.993C139.675 233.899 141.12 232.969 141.872 231.544L156 204L138 170L112 200Z" fill="#445B7A"/>
  <path d="M82 166H98L108 240H72L82 166Z" fill="#314767"/>
  <circle cx="90" cy="102" r="24" fill="#F4F7FC"/>
  <circle cx="90" cy="102" r="14" fill="#335A93"/>
</svg>
